<?xml version="1.0" encoding="UTF-8"?>
<svg width="700pt" height="700pt" version="1.1" viewBox="0 0 700 700" xmlns="http://www.w3.org/2000/svg" xmlns:xlink="http://www.w3.org/1999/xlink">
 <defs>
  <symbol id="w" overflow="visible">
   <path d="m18.766-1.125c-0.96875 0.5-1.9805 0.875-3.0312 1.125-1.043 0.25781-2.1367 0.39062-3.2812 0.39062-3.3984 0-6.0898-0.94531-8.0781-2.8438-1.9922-1.9062-2.9844-4.4844-2.9844-7.7344 0-3.2578 0.99219-5.8359 2.9844-7.7344 1.9883-1.9062 4.6797-2.8594 8.0781-2.8594 1.1445 0 2.2383 0.13281 3.2812 0.39062 1.0508 0.25 2.0625 0.625 3.0312 1.125v4.2188c-0.98047-0.65625-1.9453-1.1406-2.8906-1.4531-0.94922-0.3125-1.9492-0.46875-3-0.46875-1.875 0-3.3516 0.60547-4.4219 1.8125-1.0742 1.1992-1.6094 2.8555-1.6094 4.9688 0 2.1055 0.53516 3.7617 1.6094 4.9688 1.0703 1.1992 2.5469 1.7969 4.4219 1.7969 1.0508 0 2.0508-0.14844 3-0.45312 0.94531-0.3125 1.9102-0.80078 2.8906-1.4688z"/>
  </symbol>
  <symbol id="c" overflow="visible">
   <path d="m13.734-11.141c-0.4375-0.19531-0.87109-0.34375-1.2969-0.4375-0.41797-0.10156-0.83984-0.15625-1.2656-0.15625-1.2617 0-2.2305 0.40625-2.9062 1.2188-0.67969 0.80469-1.0156 1.9531-1.0156 3.4531v7.0625h-4.8906v-15.312h4.8906v2.5156c0.625-1 1.3438-1.7266 2.1562-2.1875 0.82031-0.46875 1.8008-0.70312 2.9375-0.70312 0.16406 0 0.34375 0.011719 0.53125 0.03125 0.19531 0.011719 0.47656 0.039062 0.84375 0.078125z"/>
  </symbol>
  <symbol id="a" overflow="visible">
   <path d="m17.641-7.7031v1.4062h-11.453c0.125 1.1484 0.53906 2.0078 1.25 2.5781 0.70703 0.57422 1.7031 0.85938 2.9844 0.85938 1.0312 0 2.082-0.14844 3.1562-0.45312 1.082-0.3125 2.1914-0.77344 3.3281-1.3906v3.7656c-1.1562 0.4375-2.3125 0.76562-3.4688 0.98438-1.1562 0.22656-2.3125 0.34375-3.4688 0.34375-2.7734 0-4.9297-0.70312-6.4688-2.1094-1.5312-1.4062-2.2969-3.3789-2.2969-5.9219 0-2.5 0.75391-4.4609 2.2656-5.8906 1.5078-1.4375 3.582-2.1562 6.2188-2.1562 2.4062 0 4.332 0.73047 5.7812 2.1875 1.4453 1.4492 2.1719 3.3828 2.1719 5.7969zm-5.0312-1.625c0-0.92578-0.27344-1.6719-0.8125-2.2344-0.54297-0.57031-1.25-0.85938-2.125-0.85938-0.94922 0-1.7188 0.26562-2.3125 0.79688s-0.96484 1.2969-1.1094 2.2969z"/>
  </symbol>
  <symbol id="f" overflow="visible">
   <path d="m9.2188-6.8906c-1.0234 0-1.793 0.17188-2.3125 0.51562-0.51172 0.34375-0.76562 0.85547-0.76562 1.5312 0 0.625 0.20703 1.1172 0.625 1.4688 0.41406 0.34375 0.98828 0.51562 1.7188 0.51562 0.92578 0 1.7031-0.32812 2.3281-0.98438 0.63281-0.66406 0.95312-1.4922 0.95312-2.4844v-0.5625zm7.4688-1.8438v8.7344h-4.9219v-2.2656c-0.65625 0.92969-1.3984 1.6055-2.2188 2.0312-0.82422 0.41406-1.8242 0.625-3 0.625-1.5859 0-2.8711-0.45703-3.8594-1.375-0.99219-0.92578-1.4844-2.1289-1.4844-3.6094 0-1.7891 0.61328-3.1016 1.8438-3.9375 1.2383-0.84375 3.1797-1.2656 5.8281-1.2656h2.8906v-0.39062c0-0.76953-0.30859-1.332-0.92188-1.6875-0.61719-0.36328-1.5703-0.54688-2.8594-0.54688-1.0547 0-2.0312 0.10547-2.9375 0.3125-0.89844 0.21094-1.7305 0.52344-2.5 0.9375v-3.7344c1.0391-0.25 2.0859-0.44141 3.1406-0.57812 1.0625-0.13281 2.125-0.20312 3.1875-0.20312 2.7578 0 4.75 0.54688 5.9688 1.6406 1.2266 1.0859 1.8438 2.8555 1.8438 5.3125z"/>
  </symbol>
  <symbol id="b" overflow="visible">
   <path d="m7.7031-19.656v4.3438h5.0469v3.5h-5.0469v6.5c0 0.71094 0.14062 1.1875 0.42188 1.4375s0.83594 0.375 1.6719 0.375h2.5156v3.5h-4.1875c-1.9375 0-3.3125-0.39844-4.125-1.2031-0.80469-0.8125-1.2031-2.1797-1.2031-4.1094v-6.5h-2.4219v-3.5h2.4219v-4.3438z"/>
  </symbol>
  <symbol id="l" overflow="visible">
   <path d="m12.766-13.078v-8.2031h4.9219v21.281h-4.9219v-2.2188c-0.66797 0.90625-1.4062 1.5703-2.2188 1.9844s-1.7578 0.625-2.8281 0.625c-1.8867 0-3.4336-0.75-4.6406-2.25-1.2109-1.5-1.8125-3.4258-1.8125-5.7812 0-2.3633 0.60156-4.2969 1.8125-5.7969 1.207-1.5 2.7539-2.25 4.6406-2.25 1.0625 0 2 0.21484 2.8125 0.64062 0.82031 0.42969 1.5664 1.0859 2.2344 1.9688zm-3.2188 9.9219c1.0391 0 1.8359-0.37891 2.3906-1.1406 0.55078-0.76953 0.82812-1.8828 0.82812-3.3438 0-1.457-0.27734-2.5664-0.82812-3.3281-0.55469-0.76953-1.3516-1.1562-2.3906-1.1562-1.043 0-1.8398 0.38672-2.3906 1.1562-0.55469 0.76172-0.82812 1.8711-0.82812 3.3281 0 1.4609 0.27344 2.5742 0.82812 3.3438 0.55078 0.76172 1.3477 1.1406 2.3906 1.1406z"/>
  </symbol>
  <symbol id="k" overflow="visible">
   <path d="m10.5-3.1562c1.0508 0 1.8516-0.37891 2.4062-1.1406 0.55078-0.76953 0.82812-1.8828 0.82812-3.3438 0-1.457-0.27734-2.5664-0.82812-3.3281-0.55469-0.76953-1.3555-1.1562-2.4062-1.1562-1.0547 0-1.8594 0.38672-2.4219 1.1562-0.55469 0.77344-0.82812 1.8828-0.82812 3.3281 0 1.4492 0.27344 2.5586 0.82812 3.3281 0.5625 0.77344 1.3672 1.1562 2.4219 1.1562zm-3.25-9.9219c0.67578-0.88281 1.4219-1.5391 2.2344-1.9688 0.82031-0.42578 1.7656-0.64062 2.8281-0.64062 1.8945 0 3.4453 0.75 4.6562 2.25 1.207 1.5 1.8125 3.4336 1.8125 5.7969 0 2.3555-0.60547 4.2812-1.8125 5.7812-1.2109 1.5-2.7617 2.25-4.6562 2.25-1.0625 0-2.0078-0.21094-2.8281-0.625-0.8125-0.42578-1.5586-1.0859-2.2344-1.9844v2.2188h-4.8906v-21.281h4.8906z"/>
  </symbol>
  <symbol id="j" overflow="visible">
   <path d="m0.34375-15.312h4.8906l4.125 10.391 3.5-10.391h4.8906l-6.4375 16.766c-0.64844 1.6953-1.4023 2.8828-2.2656 3.5625-0.86719 0.6875-2 1.0312-3.4062 1.0312h-2.8438v-3.2188h1.5312c0.83203 0 1.4375-0.13672 1.8125-0.40625 0.38281-0.26172 0.67969-0.73047 0.89062-1.4062l0.14062-0.42188z"/>
  </symbol>
  <symbol id="i" overflow="visible">
   <path d="m7.8281-16.438v12.453h1.8906c2.1562 0 3.8008-0.53125 4.9375-1.5938 1.1328-1.0625 1.7031-2.6133 1.7031-4.6562 0-2.0195-0.57031-3.5547-1.7031-4.6094-1.125-1.0625-2.7734-1.5938-4.9375-1.5938zm-5.25-3.9688h5.5469c3.0938 0 5.3984 0.21875 6.9219 0.65625 1.5195 0.4375 2.8203 1.1875 3.9062 2.25 0.95703 0.91797 1.6641 1.9805 2.125 3.1875 0.46875 1.1992 0.70312 2.5586 0.70312 4.0781 0 1.543-0.23438 2.918-0.70312 4.125-0.46094 1.2109-1.168 2.2773-2.125 3.2031-1.0938 1.0547-2.4062 1.8047-3.9375 2.25-1.5312 0.4375-3.8281 0.65625-6.8906 0.65625h-5.5469z"/>
  </symbol>
  <symbol id="e" overflow="visible">
   <path d="m17.75-9.3281v9.3281h-4.9219v-7.1406c0-1.3203-0.03125-2.2344-0.09375-2.7344s-0.16797-0.86719-0.3125-1.1094c-0.1875-0.3125-0.44922-0.55469-0.78125-0.73438-0.32422-0.17578-0.69531-0.26562-1.1094-0.26562-1.0234 0-1.8242 0.39844-2.4062 1.1875-0.58594 0.78125-0.875 1.8711-0.875 3.2656v7.5312h-4.8906v-15.312h4.8906v2.2344c0.73828-0.88281 1.5195-1.5391 2.3438-1.9688 0.83203-0.42578 1.75-0.64062 2.75-0.64062 1.7695 0 3.1133 0.54688 4.0312 1.6406 0.91406 1.0859 1.375 2.6562 1.375 4.7188z"/>
  </symbol>
  <symbol id="h" overflow="visible">
   <path d="m2.3594-15.312h4.8906v15.312h-4.8906zm0-5.9688h4.8906v4h-4.8906z"/>
  </symbol>
  <symbol id="v" overflow="visible">
   <path d="m14.312-14.828v3.7188c-1.043-0.4375-2.0547-0.76562-3.0312-0.98438-0.98047-0.21875-1.9023-0.32812-2.7656-0.32812-0.92969 0-1.6211 0.11719-2.0781 0.34375-0.44922 0.23047-0.67188 0.58984-0.67188 1.0781 0 0.38672 0.17188 0.68359 0.51562 0.89062 0.34375 0.21094 0.95703 0.36719 1.8438 0.46875l0.85938 0.125c2.5078 0.32422 4.1953 0.85156 5.0625 1.5781 0.86328 0.73047 1.2969 1.8711 1.2969 3.4219 0 1.6367-0.60547 2.8672-1.8125 3.6875-1.1992 0.8125-2.9922 1.2188-5.375 1.2188-1.0234 0-2.0742-0.078125-3.1562-0.23438-1.0742-0.15625-2.1797-0.39453-3.3125-0.71875v-3.7188c0.96875 0.48047 1.9609 0.83984 2.9844 1.0781 1.0312 0.23047 2.0781 0.34375 3.1406 0.34375 0.95703 0 1.6758-0.12891 2.1562-0.39062 0.47656-0.26953 0.71875-0.66406 0.71875-1.1875 0-0.4375-0.16797-0.75781-0.5-0.96875-0.33594-0.21875-0.99609-0.38281-1.9844-0.5l-0.85938-0.10938c-2.1797-0.26953-3.7031-0.77344-4.5781-1.5156-0.875-0.73828-1.3125-1.8594-1.3125-3.3594 0-1.625 0.55078-2.8281 1.6562-3.6094 1.1133-0.78906 2.8203-1.1875 5.125-1.1875 0.89453 0 1.8359 0.074219 2.8281 0.21875 1 0.13672 2.082 0.35156 3.25 0.64062z"/>
  </symbol>
  <symbol id="u" overflow="visible">
   <path d="m16.781-19.766v4.3125c-1.125-0.5-2.2266-0.875-3.2969-1.125-1.0625-0.25781-2.0703-0.39062-3.0156-0.39062-1.25 0-2.1797 0.17969-2.7812 0.53125-0.60547 0.34375-0.90625 0.88281-0.90625 1.6094 0 0.54297 0.20312 0.96875 0.60938 1.2812 0.40625 0.30469 1.1406 0.5625 2.2031 0.78125l2.25 0.45312c2.2695 0.44922 3.8789 1.1406 4.8281 2.0781 0.95703 0.92969 1.4375 2.2461 1.4375 3.9531 0 2.25-0.66797 3.9297-2 5.0312-1.3359 1.0938-3.3711 1.6406-6.1094 1.6406-1.3047 0-2.6055-0.125-3.9062-0.375-1.3047-0.23828-2.6055-0.59766-3.9062-1.0781v-4.4531c1.3008 0.69922 2.5625 1.2266 3.7812 1.5781 1.2188 0.34375 2.3906 0.51562 3.5156 0.51562 1.1562 0 2.0352-0.1875 2.6406-0.5625 0.61328-0.38281 0.92188-0.9375 0.92188-1.6562 0-0.63281-0.21094-1.125-0.625-1.4688-0.41797-0.34375-1.2461-0.65625-2.4844-0.9375l-2.0312-0.4375c-2.043-0.4375-3.5391-1.1328-4.4844-2.0938-0.9375-0.95703-1.4062-2.25-1.4062-3.875 0-2.0312 0.65625-3.5938 1.9688-4.6875s3.1953-1.6406 5.6562-1.6406c1.125 0 2.2734 0.085938 3.4531 0.25 1.1875 0.16797 2.4141 0.42188 3.6875 0.76562z"/>
  </symbol>
  <symbol id="t" overflow="visible">
   <path d="m1.5938-15.312h13.359v3.4219l-8.0625 8.3906h8.0625v3.5h-13.688v-3.4219l8.0625-8.3906h-7.7344z"/>
  </symbol>
  <symbol id="g" overflow="visible">
   <path d="m17.75-9.3281v9.3281h-4.9219v-7.1094c0-1.3438-0.03125-2.2656-0.09375-2.7656s-0.16797-0.86719-0.3125-1.1094c-0.1875-0.3125-0.44922-0.55469-0.78125-0.73438-0.32422-0.17578-0.69531-0.26562-1.1094-0.26562-1.0234 0-1.8242 0.39844-2.4062 1.1875-0.58594 0.78125-0.875 1.8711-0.875 3.2656v7.5312h-4.8906v-21.281h4.8906v8.2031c0.73828-0.88281 1.5195-1.5391 2.3438-1.9688 0.83203-0.42578 1.75-0.64062 2.75-0.64062 1.7695 0 3.1133 0.54688 4.0312 1.6406 0.91406 1.0859 1.375 2.6562 1.375 4.7188z"/>
  </symbol>
  <symbol id="s" overflow="visible">
   <path d="m12.422-21.281v3.2188h-2.7031c-0.6875 0-1.1719 0.125-1.4531 0.375-0.27344 0.25-0.40625 0.6875-0.40625 1.3125v1.0625h4.1875v3.5h-4.1875v11.812h-4.8906v-11.812h-2.4375v-3.5h2.4375v-1.0625c0-1.6641 0.46094-2.8984 1.3906-3.7031 0.92578-0.80078 2.3672-1.2031 4.3281-1.2031z"/>
  </symbol>
  <symbol id="d" overflow="visible">
   <path d="m9.6406-12.188c-1.0859 0-1.9141 0.39062-2.4844 1.1719-0.57422 0.78125-0.85938 1.9062-0.85938 3.375s0.28516 2.5938 0.85938 3.375c0.57031 0.77344 1.3984 1.1562 2.4844 1.1562 1.0625 0 1.875-0.38281 2.4375-1.1562 0.57031-0.78125 0.85938-1.9062 0.85938-3.375s-0.28906-2.5938-0.85938-3.375c-0.5625-0.78125-1.375-1.1719-2.4375-1.1719zm0-3.5c2.6328 0 4.6914 0.71484 6.1719 2.1406 1.4766 1.418 2.2188 3.3867 2.2188 5.9062 0 2.5117-0.74219 4.4805-2.2188 5.9062-1.4805 1.418-3.5391 2.125-6.1719 2.125-2.6484 0-4.7148-0.70703-6.2031-2.125-1.4922-1.4258-2.2344-3.3945-2.2344-5.9062 0-2.5195 0.74219-4.4883 2.2344-5.9062 1.4883-1.4258 3.5547-2.1406 6.2031-2.1406z"/>
  </symbol>
  <symbol id="r" overflow="visible">
   <path d="m16.547-12.766c0.61328-0.94531 1.3477-1.6719 2.2031-2.1719 0.85156-0.5 1.7891-0.75 2.8125-0.75 1.7578 0 3.0977 0.54688 4.0156 1.6406 0.92578 1.0859 1.3906 2.6562 1.3906 4.7188v9.3281h-4.9219v-7.9844-0.35938c0.007813-0.13281 0.015625-0.32031 0.015625-0.5625 0-1.082-0.16406-1.8633-0.48438-2.3438-0.3125-0.48828-0.82422-0.73438-1.5312-0.73438-0.92969 0-1.6484 0.38672-2.1562 1.1562-0.51172 0.76172-0.77344 1.8672-0.78125 3.3125v7.5156h-4.9219v-7.9844c0-1.6953-0.14844-2.7852-0.4375-3.2656-0.29297-0.48828-0.8125-0.73438-1.5625-0.73438-0.9375 0-1.6641 0.38672-2.1719 1.1562-0.51172 0.76172-0.76562 1.8594-0.76562 3.2969v7.5312h-4.9219v-15.312h4.9219v2.2344c0.60156-0.86328 1.2891-1.5156 2.0625-1.9531 0.78125-0.4375 1.6406-0.65625 2.5781-0.65625 1.0625 0 2 0.25781 2.8125 0.76562 0.8125 0.51172 1.4258 1.2305 1.8438 2.1562z"/>
  </symbol>
  <symbol id="q" overflow="visible">
   <path d="m2.5781-20.406h5.875l7.4219 14v-14h4.9844v20.406h-5.875l-7.4219-14v14h-4.9844z"/>
  </symbol>
  <symbol id="p" overflow="visible">
   <path d="m2.1875-5.9688v-9.3438h4.9219v1.5312c0 0.83594-0.007813 1.875-0.015625 3.125-0.011719 1.25-0.015625 2.0859-0.015625 2.5 0 1.2422 0.03125 2.1328 0.09375 2.6719 0.070313 0.54297 0.17969 0.93359 0.32812 1.1719 0.20703 0.32422 0.47266 0.57422 0.79688 0.75 0.32031 0.16797 0.69141 0.25 1.1094 0.25 1.0195 0 1.8203-0.39062 2.4062-1.1719 0.58203-0.78125 0.875-1.8672 0.875-3.2656v-7.5625h4.8906v15.312h-4.8906v-2.2188c-0.74219 0.89844-1.5234 1.5586-2.3438 1.9844-0.82422 0.41406-1.7344 0.625-2.7344 0.625-1.7617 0-3.1055-0.53906-4.0312-1.625-0.92969-1.082-1.3906-2.6602-1.3906-4.7344z"/>
  </symbol>
  <symbol id="o" overflow="visible">
   <path d="m2.5781-20.406h8.7344c2.5938 0 4.582 0.57812 5.9688 1.7344 1.3945 1.1484 2.0938 2.7891 2.0938 4.9219 0 2.1367-0.69922 3.7812-2.0938 4.9375-1.3867 1.1562-3.375 1.7344-5.9688 1.7344h-3.4844v7.0781h-5.25zm5.25 3.8125v5.7031h2.9219c1.0195 0 1.8047-0.25 2.3594-0.75 0.5625-0.5 0.84375-1.2031 0.84375-2.1094 0-0.91406-0.28125-1.6172-0.84375-2.1094-0.55469-0.48828-1.3398-0.73438-2.3594-0.73438z"/>
  </symbol>
  <symbol id="n" overflow="visible">
   <path d="m2.3594-15.312h4.8906v15.031c0 2.0508-0.49609 3.6172-1.4844 4.7031-0.98047 1.082-2.4062 1.625-4.2812 1.625h-2.4219v-3.2188h0.85938c0.92578 0 1.5625-0.21094 1.9062-0.625 0.35156-0.41797 0.53125-1.2461 0.53125-2.4844zm0-5.9688h4.8906v4h-4.8906z"/>
  </symbol>
  <symbol id="m" overflow="visible">
   <path d="m14.719-14.828v3.9844c-0.65625-0.45703-1.3242-0.79688-2-1.0156-0.66797-0.21875-1.3594-0.32812-2.0781-0.32812-1.3672 0-2.4336 0.40234-3.2031 1.2031-0.76172 0.79297-1.1406 1.9062-1.1406 3.3438 0 1.4297 0.37891 2.543 1.1406 3.3438 0.76953 0.79297 1.8359 1.1875 3.2031 1.1875 0.75781 0 1.4844-0.10938 2.1719-0.32812 0.6875-0.22656 1.3203-0.56641 1.9062-1.0156v4c-0.76172 0.28125-1.5391 0.48828-2.3281 0.625-0.78125 0.14453-1.5742 0.21875-2.375 0.21875-2.7617 0-4.9219-0.70703-6.4844-2.125-1.5547-1.4141-2.3281-3.3828-2.3281-5.9062 0-2.5312 0.77344-4.5039 2.3281-5.9219 1.5625-1.4141 3.7227-2.125 6.4844-2.125 0.80078 0 1.5938 0.074219 2.375 0.21875 0.78125 0.13672 1.5547 0.35156 2.3281 0.64062z"/>
  </symbol>
 </defs>
 <g>
  <path d="m609.37 330.97c-4.9023-4.7422-12.156-7.6016-20.422-8.0508-7.1289-0.39062-14.062 0.89844-20.77 2.1445l-23.348 4.3359c1.6406-5.1367 2.8164-10.387 3.293-15.738 0.1875-2.1133 0.49219-5.5781 0.45312-9.6016 0.40234-0.89453 0.33594-1.8594-0.082031-2.6836-0.20313-4.1367-0.83203-8.6406-2.3242-12.781 5.4531-3.4609 11.152-6.6094 16.992-9.332 1.582-0.73438 2.2617-2.6133 1.5234-4.1914-0.73828-1.582-2.6133-2.2656-4.1914-1.5234-5.8945 2.75-11.652 5.918-17.176 9.3945-1.3008-1.9336-2.8828-3.6758-4.8633-5.0781 2.7695-4.4023 5.6836-8.7461 8.7773-12.906 1.043-1.3984 0.75-3.375-0.64844-4.4141-1.3945-1.0391-3.375-0.75-4.4141 0.64844-3.3945 4.5625-6.5859 9.332-9.6016 14.172-1.082-0.20703-2.1797-0.32812-3.332-0.45312-1.3945-0.15234-3.0078-0.32422-4.9961-0.69531-10.027-1.875-14.648-5.9258-19.539-10.215-4.0547-3.5547-8.2344-7.2148-15.227-9.2617-1.7266-8.2227-3.9883-16.371-6.8047-24.27-1.2773-3.5859-3.1289-7.4414-7.1641-8.8477-3.7773-1.3164-8.0977 0.11719-11.844 3.9297-2.0078 2.0391-3.6445 4.3555-5.0664 6.7344-0.62109-0.56641-1.2656-1.168-1.8789-1.7227-1.5625-1.4219-4.1758-3.8047-7.6445-3.8711-2.5-0.015625-4.9375 1.082-7.4141 3.4492-6.6445 6.3477-9.0039 14.98-9.8164 21.102-1 7.5273-0.28906 15.012 0.39062 22.25l0.69141 7.3125c-1.8711 2.9375-3.6055 5.0586-7.3359 6.7656-13.242 6.0547-29.168-3.5156-29.84-3.9219-6.5625-4.0117-9.6914-8.8086-13.312-14.359-0.94531-1.4492-1.9141-2.9297-2.9648-4.4375-7.8906-11.305-18.406-21.078-31.27-29.047-7.5625-9.4062-11.91-22.102-11.941-34.922-0.039062-15.695 6-32.586 17.004-47.562 7.8906-10.738 16.777-18.562 26.414-23.246 17.141-8.3281 37.73-7.1406 53.75-5.1758l0.39062 0.046874c4.3477 0.53516 9.2695 1.1445 13.984-0.32422 4.8945-1.5234 8.9062-5.3828 11-10.586 2.0977-5.207 1.8789-10.766-0.59766-15.258-3.8672-7.0117-11.84-11.086-24.375-12.465-40.23-4.4141-80.586 10.734-105.32 39.562-22.258 25.941-30.379 62.391-21.359 94.258-24.551-3.7617-44.523 2.0625-48.496 3.3477-7.1445 2.3086-18.938 6.125-29.879 14.785-11-1.5625-21.855-4.082-32.367-7.6328-5.0781-1.7188-9.1719-3.3945-12.641-5.9805-1.3281-0.99219-2.5938-2.1367-3.9336-3.3516-3.1055-2.8164-6.3164-5.7266-10.699-7.0234-5.8359-1.7266-11.363 0.03125-16.707 1.7305-3.9258 1.25-7.6406 2.4336-11.191 2.1523-5.3203-0.40625-10.047-3.9922-15.055-7.7852-6.1484-4.6562-12.535-9.4688-20.672-8.7578-4.6602 0.41016-9 2.8438-12.223 6.8555-3.6836 4.582-5.4453 10.676-4.7188 16.301 0.16406 1.2539 0.45313 2.4922 0.82031 3.7188-0.51172 0.58594-1.0078 1.1953-1.4648 1.8555-3.3438 4.8359-4.668 11.039-3.5352 16.598 1.8438 9.0586 9.3398 17.195 19.566 21.242 9.0234 3.5703 18.641 3.8789 27.719 3.8906 3.5469 0.003906 7.2188 0.007813 9.8164 1.6289 1.9492 1.2188 3.4414 3.457 4.8828 5.6172 13.539 20.301 29.691 43.574 50.102 62.887 10.516 9.9492 21.684 18.281 33.188 24.77 22.531 24.625 55.133 35.645 78.969 43.699 3.8242 1.293 8.8516 2.8281 14.871 4.3555 0.20312 0.8125 0.39844 1.6211 0.60938 2.4453 1.6211 6.3633 3.2969 12.949 2.6836 20.074-0.35156 4.0742-0.62891 7.2969-2.9023 9.8555-1.2812 1.4375-2.668 2.0898-4.2695 2.8398-2.1758 1.0234-4.8828 2.293-6.7969 5.6719-0.40625 0.71875-3.8672 7.1719-0.26562 12.555 2.4297 3.6328 6.5469 4.4688 7.9883 4.6289 3.5039 0.65234 8.5117 1.3477 14.02 1.3477 6.0977 0 12.805-0.85156 18.746-3.5352 6.9766-3.1562 9.3711-7.1875 10.078-8.7695 1.5234-3.4141 1.3203-7.1055 1.1602-10.066l-1.2031-21.703c-0.054687-1.0273-0.12109-2.1875 0.17188-2.8594 0.69141-1.5742 3.1133-2.3086 4.1094-2.6133 1.5742-0.48828 3.6953-1.4297 6.2656-2.7422 2.9141 0.10547 5.8633 0.17969 8.9023 0.17969 1.043 0 2.0938-0.007812 3.1484-0.019531l1.0156-0.015625c24.402-0.30469 61.273-0.77344 98.168-23.41 6.0586-3.7188 12.395-8.2578 18.629-13.422 27.316-3.4961 53.141-16.223 75.902-28.48 1.5781-0.85156 3.3516-1.8164 4.8359-1.7148 1.582 0.10547 3.1211 1.3789 4.9023 2.8633 1.3398 1.1133 2.7266 2.2656 4.3945 3.1406 3.4062 1.793 7.4609 1.9844 11.418 0.54297 4.3203-1.5742 7.8906-4.9258 9.5391-8.9688 2.875-7.0391 0.66016-16.039-5.3867-21.891zm-6.3164 24.93c-2.2656 0.82031-4.5117 0.75391-6.3203-0.19922-1.0859-0.56641-2.1602-1.4648-3.3008-2.4102-2.293-1.9062-4.8906-4.0703-8.5234-4.3047-3.2422-0.19531-6.1445 1.332-8.2383 2.457-19.484 10.496-41.246 21.355-64.043 26.148 12.242-11.688 23.199-25.812 29.66-41.297l27.039-5.0234c6.3398-1.1797 12.895-2.4102 19.273-2.0469 6.7539 0.36719 12.57 2.6016 16.379 6.2852 4.2422 4.1016 5.8594 10.254 3.9297 14.965-0.98438 2.418-3.1758 4.4492-5.8555 5.4258zm-216.17 60.102-1.0156 0.011719c-0.375 0.003906-0.73438-0.003907-1.1055 0 4.9141-2.9766 10.762-6.7031 17.637-11.223 1.457-0.95312 1.8594-2.9102 0.90234-4.3672-0.95312-1.457-2.9141-1.8555-4.3672-0.90234-17.316 11.391-28.477 17.902-33.328 19.41-1.4844 0.44922-6.0078 1.8203-7.8633 6.0586-0.89453 2.0469-0.78125 4.1797-0.69141 5.7383l1.2031 21.699c0.13672 2.5195 0.28516 5.1289-0.62109 7.1484-0.14062 0.31641-1.5273 3.1562-6.9141 5.5898-9.7344 4.3984-22.355 2.9766-29.227 1.707-0.61328-0.074219-2.6953-0.41797-3.6875-1.9023-1.5-2.2461 0.49219-5.9023 0.51172-5.9375 0.88281-1.5586 1.9766-2.125 3.9883-3.0703 1.8555-0.86719 4.1641-1.9531 6.3047-4.3594 3.6641-4.1211 4.0781-8.8906 4.4766-13.512 0.70703-8.1875-1.1875-15.617-2.8555-22.168-1.3242-5.1992-2.5742-10.109-2.4609-14.828 0.023438-0.89844 0.074219-3 1.293-4.8594 0.87891-1.3398 2.5703-2.332 4.3633-3.3867l0.47656-0.28125c13.441-7.9219 24.809-19.914 32.004-33.762 0.80469-1.5469 0.20312-3.4492-1.3438-4.2539-1.5508-0.80859-3.4492-0.19922-4.2539 1.3438-6.6602 12.812-17.176 23.906-29.613 31.238l-0.46484 0.27734c-2.2305 1.3047-4.7539 2.7891-6.4453 5.3594-1.9805 3.0195-2.2773 6.1094-2.3242 8.1719-0.058594 2.4336 0.19922 4.8125 0.58984 7.1914-4.5-1.2109-8.3398-2.4023-11.391-3.4336-23.305-7.8789-55.219-18.664-76.664-42.344-0.23047-0.25391-0.5-0.46875-0.79688-0.63281-11.211-6.2695-22.105-14.375-32.383-24.098-19.934-18.859-35.844-41.789-49.188-61.805-1.7266-2.5938-3.6875-5.5312-6.7891-7.4688-4.125-2.5781-8.9219-2.5859-13.152-2.5898-8.4688-0.011719-17.41-0.28516-25.406-3.4453-6.4766-2.5625-14.004-8.2773-15.703-16.633-0.79297-3.9062 0.15625-8.3008 2.543-11.75 1.9414-2.8047 4.6094-4.6055 7.5195-5.0742 0.62109-0.10156 1.2383-0.14844 1.8516-0.14844 5.0195 0 9.8594 3.1484 14.953 6.4648 5.7969 3.7695 11.789 7.668 18.98 7.7031h0.09375c4.7578 0 9.0898-1.7266 13.281-3.3984 4.5273-1.8047 8.8086-3.5039 12.852-2.6211 3.0586 0.67188 5.7695 2.7969 8.6367 5.043 1.4766 1.1602 3.0039 2.3555 4.6523 3.4102 4.6055 2.9453 9.8594 4.5547 14.852 5.8516 8.8438 2.2969 18.266 3.9648 28.008 4.957 1.1289 0.12891 2.2227-0.37891 2.8789-1.2969l0.61719-0.875c0.40234-0.57422 0.80078-1.1523 1.25-1.707 11.805-14.609 27.609-19.711 37.055-22.758 2.4023-0.77344 23.836-7.2852 49.105-2.4883 1.4219 3.5586 3.0273 7.0508 4.9375 10.363 0.58594 1.0117 1.6445 1.5781 2.7344 1.5781 0.53516 0 1.0781-0.13672 1.5742-0.42188 1.5078-0.87109 2.0273-2.8008 1.1562-4.3086-2.1875-3.7891-4.0469-7.8047-5.5273-11.93-0.0625-0.17188-0.18359-0.29297-0.26953-0.44531-10.074-30.648-2.7148-66.547 18.992-91.848 23.398-27.27 61.66-41.594 99.836-37.398 10.344 1.1367 16.738 4.1602 19.539 9.2383 1.5352 2.7812 1.6367 6.4648 0.26953 9.8555-1.3633 3.3906-3.9922 5.9766-7.0234 6.918-3.418 1.0625-7.2656 0.58984-11.34 0.085938l-0.39063-0.050782c-16.891-2.0703-38.66-3.2891-57.277 5.7656-10.57 5.1367-20.242 13.613-28.742 25.188-8.3477 11.359-18.285 29.484-18.23 51.312 0.035157 14.434 5.0312 28.766 13.707 39.316 0.22266 0.26953 0.48828 0.50391 0.78516 0.68359 12.328 7.5664 22.371 16.84 29.855 27.566 1.0117 1.4492 1.9414 2.875 2.8516 4.2734 3.8711 5.9336 7.5273 11.539 15.309 16.293 1.9766 1.2109 19.777 11.59 35.754 4.2773 5.6719-2.5938 8.168-6.0977 10.633-10.07 0.36328-0.58594 0.52344-1.2734 0.46094-1.9531l-0.78906-8.3789c-0.64844-6.8906-1.3203-14.012-0.41797-20.828 0.67969-5.1172 2.6016-12.285 7.9219-17.367 1.4883-1.4219 2.4219-1.7461 2.9375-1.7031 1.0117 0.019532 2.293 1.1094 3.5156 2.2227 7.3711 6.7109 15.727 14.32 22.086 22.996 0.60937 0.83594 1.6406 1.3398 2.6211 1.2891 2.7031-0.0625 5.3125 0.13672 7.7578 0.61328 7.4023 1.4297 11.203 4.7656 15.605 8.625 5.0664 4.4453 10.809 9.4805 22.539 11.672 2.2031 0.41406 4.0156 0.60938 5.4766 0.76562 1.5039 0.16406 2.6094 0.29297 3.6016 0.55859 0.042969 0.027344 0.0625 0.070312 0.10547 0.097656 0.39453 0.23828 0.82031 0.35156 1.25 0.40625 0.41016 0.19531 0.81641 0.42578 1.25 0.73047 4.5742 3.207 7.0508 9.7305 7.4102 19.453-2.4062 3.0078-7.082 4.3086-10.594 2.6953-1.582-0.73047-3.4609-0.035156-4.1836 1.5469-0.73047 1.582-0.035156 3.457 1.5469 4.1836 1.9023 0.87891 3.957 1.293 6.0117 1.293 2.4375 0 4.8594-0.61328 7.0469-1.7031-0.054688 0.89062-0.082031 1.7383-0.16406 2.668-3.0117 34.02-34.207 64.578-60.004 80.406-35.414 21.723-71.242 22.172-94.949 22.473zm-280.81-208.11c5.7266-0.5 10.871 3.3828 16.309 7.5039 5.5117 4.1758 11.215 8.4961 18.383 9.0469 4.7734 0.35938 9.2578-1.0547 13.586-2.4297 4.6406-1.4766 9.0312-2.875 13.008-1.6914 3.0039 0.89062 5.5547 3.1992 8.2539 5.6484 1.3906 1.2617 2.8281 2.5664 4.3984 3.7344 4.3789 3.2695 9.5039 5.2461 14.395 6.9023 9.2344 3.1211 18.738 5.4492 28.359 7.0898-1.4102 1.4336-2.793 2.9375-4.1172 4.5781-0.36328 0.44922-0.69922 0.91016-1.0312 1.3711-8.7695-0.97656-17.25-2.5195-25.227-4.5898-5.1875-1.3477-9.3906-2.7266-13.035-5.0586-1.3906-0.89062-2.7383-1.9453-4.1602-3.0625-3.2969-2.5859-6.7109-5.2578-11.176-6.2383-5.9453-1.3164-11.332 0.84375-16.539 2.9219-3.8047 1.5156-7.3984 2.9492-10.945 2.9492h-0.0625c-5.3359-0.027343-10.309-3.2617-15.57-6.6836-6.4688-4.207-13.152-8.5625-21.25-7.2539-1.6562 0.26563-3.25 0.80078-4.7539 1.5586-0.011719-0.078125-0.039063-0.15234-0.046876-0.22656-0.51172-3.957 0.75-8.2695 3.3789-11.539 2.1172-2.6641 4.9102-4.2734 7.8438-4.5312zm362.09 22.078c1.4336-1.457 3.668-2.9492 5.2695-2.3984 1.5195 0.53125 2.5195 2.8281 3.2969 5.0117 2.4258 6.7969 4.4336 13.785 6.0273 20.848-1.3359-0.14062-2.6953-0.23047-4.082-0.24609-4.6172-6.0625-10.012-11.5-15.32-16.496 1.375-2.4492 2.9023-4.7812 4.8086-6.7188z"/>
  <path d="m481.38 334.51c0.50391 0 1.0195-0.125 1.4961-0.38281 5.5742-3.0195 10.719-6.7812 15.285-11.176 1.2578-1.2109 1.293-3.207 0.085938-4.4609-1.207-1.2578-3.2031-1.2891-4.4609-0.085938-4.1602 4.0039-8.8398 7.4258-13.914 10.176-1.5312 0.83203-2.1016 2.7461-1.2734 4.2773 0.57812 1.0547 1.6602 1.6523 2.7812 1.6523z"/>
  <path d="m503.11 324.29c-5.1836 5.7812-9.8047 12.113-13.734 18.812-0.88281 1.5-0.375 3.4336 1.1289 4.3164 0.50391 0.29297 1.0508 0.42969 1.5938 0.42969 1.082 0 2.1367-0.55859 2.7227-1.5586 3.7109-6.332 8.082-12.32 12.988-17.789 1.1641-1.2969 1.0547-3.2891-0.24219-4.4531-1.3047-1.1602-3.293-1.0547-4.457 0.24219z"/>
  <path d="m482.14 302.51c1.8594 0.17578 3.9062 0.37109 6.0195 0.37109 3.0391 0 6.2188-0.40234 9.1953-1.8438 6.4062-3.0977 10.07-10.676 8.5273-17.617-0.37891-1.6992-2.0625-2.7734-3.7656-2.3945-1.6992 0.37891-2.7734 2.0625-2.3945 3.7617 0.91016 4.1016-1.3359 8.7383-5.1172 10.57-3.207 1.5508-7.1055 1.3242-11.867 0.86719-1.7266-0.16406-3.2734 1.1055-3.4414 2.8398-0.16406 1.7422 1.1094 3.2812 2.8438 3.4453z"/>
  <use x="70" y="644" xlink:href="#w"/>
  <use x="90.550781" y="644" xlink:href="#c"/>
  <use x="104.359375" y="644" xlink:href="#a"/>
  <use x="123.347656" y="644" xlink:href="#f"/>
  <use x="142.242188" y="644" xlink:href="#b"/>
  <use x="155.628906" y="644" xlink:href="#a"/>
  <use x="174.617188" y="644" xlink:href="#l"/>
  <use x="204.410156" y="644" xlink:href="#k"/>
  <use x="224.453125" y="644" xlink:href="#j"/>
  <use x="252.453125" y="644" xlink:href="#i"/>
  <use x="275.695312" y="644" xlink:href="#a"/>
  <use x="294.683594" y="644" xlink:href="#e"/>
  <use x="314.617188" y="644" xlink:href="#h"/>
  <use x="324.214844" y="644" xlink:href="#v"/>
  <use x="350.628906" y="644" xlink:href="#u"/>
  <use x="370.796875" y="644" xlink:href="#f"/>
  <use x="389.6875" y="644" xlink:href="#t"/>
  <use x="405.984375" y="644" xlink:href="#g"/>
  <use x="425.921875" y="644" xlink:href="#h"/>
  <use x="435.515625" y="644" xlink:href="#e"/>
  <use x="70" y="672" xlink:href="#s"/>
  <use x="82.183594" y="672" xlink:href="#c"/>
  <use x="95.992188" y="672" xlink:href="#d"/>
  <use x="115.226562" y="672" xlink:href="#r"/>
  <use x="154.152344" y="672" xlink:href="#b"/>
  <use x="167.535156" y="672" xlink:href="#g"/>
  <use x="187.46875" y="672" xlink:href="#a"/>
  <use x="216.207031" y="672" xlink:href="#q"/>
  <use x="239.640625" y="672" xlink:href="#d"/>
  <use x="258.878906" y="672" xlink:href="#p"/>
  <use x="278.8125" y="672" xlink:href="#e"/>
  <use x="308.492188" y="672" xlink:href="#o"/>
  <use x="329.015625" y="672" xlink:href="#c"/>
  <use x="342.820312" y="672" xlink:href="#d"/>
  <use x="362.058594" y="672" xlink:href="#n"/>
  <use x="371.65625" y="672" xlink:href="#a"/>
  <use x="390.648438" y="672" xlink:href="#m"/>
  <use x="407.242188" y="672" xlink:href="#b"/>
 </g>
</svg>
